<svg width="40" height="40" viewBox="0 0 40 40" fill="none" xmlns="http://www.w3.org/2000/svg">
  <defs>
    <linearGradient id="tpb-grad-a" x1="6" y1="5" x2="34" y2="35" gradientUnits="userSpaceOnUse">
      <stop stop-color="#0EA5E9"/>
      <stop offset="1" stop-color="#38BDF8"/>
    </linearGradient>
  </defs>

  <!-- Outer soft background -->
  <circle cx="20" cy="20" r="19" fill="#E0F5FF"/>

  <!-- Compass ring -->
  <circle cx="20" cy="20" r="14.5" fill="url(#tpb-grad-a)"/>

  <!-- Inner white disk -->
  <circle cx="20" cy="20" r="11" fill="white"/>

  <!-- Traveler (person with suitcase) -->
  <!-- Head -->
  <circle cx="18" cy="17" r="1.4" fill="#0F172A"/>
  <!-- Body -->
  <path d="M18 18.6V22.5" stroke="#0F172A" stroke-width="1.4" stroke-linecap="round"/>
  <!-- Legs -->
  <path d="M18 22.5L16.8 24.3" stroke="#0F172A" stroke-width="1.2" stroke-linecap="round"/>
  <path d="M18 22.5L19.2 24.3" stroke="#0F172A" stroke-width="1.2" stroke-linecap="round"/>
  <!-- Arm with suitcase -->
  <path d="M18 19.8L20 21" stroke="#0F172A" stroke-width="1.2" stroke-linecap="round"/>
  <rect x="20" y="20.6" width="2.4" height="2.8" rx="0.4" fill="#0EA5E9"/>
  <path d="M20.6 20.6V19.9H21.8V20.6" stroke="#0F172A" stroke-width="0.7" stroke-linecap="round"/>

  <!-- Dotted travel path behind traveler -->
  <path d="M13 24C14.5 22.3 16.2 21.5 18 21.5C19.7 21.5 21.1 22.1 22.5 23.4"
        stroke="#0EA5E9" stroke-width="1.3" stroke-linecap="round" stroke-dasharray="3 3"/>

  <!-- Start point -->
  <circle cx="13" cy="24" r="1.3" fill="#0EA5E9"/>

  <!-- Small plane -->
  <path d="M25 13.8L19.6 19.2L18.5 18L20.8 13.3C21 12.9 21.6 12.9 21.9 13.2L25 13.8Z"
        fill="#0F172A"/>
  <path d="M19.6 19.2L18.9 21.5L20.2 20.3L22 20.7C22.4 20.8 22.8 20.5 22.9 20.1L23.3 18.3"
        stroke="#0F172A" stroke-width="1.1" stroke-linecap="round" stroke-linejoin="round"/>
</svg>
